<?xml version="1.0" encoding="UTF-8" standalone="no"?><!DOCTYPE svg PUBLIC "-//W3C//DTD SVG 1.1//EN" "http://www.w3.org/Graphics/SVG/1.1/DTD/svg11.dtd"><svg width="100%" height="100%" viewBox="0 0 1000 1000" version="1.1" xmlns="http://www.w3.org/2000/svg" xmlns:xlink="http://www.w3.org/1999/xlink" xml:space="preserve" xmlns:serif="http://www.serif.com/" style="fill-rule:evenodd;clip-rule:evenodd;stroke-linecap:round;stroke-linejoin:round;"><clipPath id="_clip1"><rect x="303" y="215" width="478.237" height="574.705"/></clipPath><g clip-path="url(#_clip1)"><path d="M750.962,290.943c-53.365,-76.456 -159.07,-99.034 -235.013,-50.287l-133.927,85.18c-36.432,23.091 -61.576,60.549 -69.272,102.626c-6.158,35.406 -1.026,71.838 15.907,103.652c-11.289,17.446 -19.499,36.945 -23.091,57.471c-7.697,43.616 2.566,88.258 27.709,124.177c53.365,76.456 158.557,99.034 235.013,50.287l133.927,-85.18c36.432,-23.091 61.576,-60.549 69.272,-102.626c6.158,-35.406 1.026,-71.838 -15.907,-103.652c11.289,-17.446 19.499,-36.945 23.091,-57.471c7.697,-43.616 -2.566,-88.258 -27.709,-124.177Zm-38.485,109.81c-1.026,4.105 -2.053,8.21 -3.079,12.315l-2.566,7.697l-6.671,-5.131c-15.907,-11.802 -33.353,-20.525 -52.339,-26.17l-5.131,-1.539l0.513,-5.131c0.513,-7.184 -1.539,-13.854 -5.644,-20.012c-7.697,-11.289 -21.551,-15.907 -34.38,-12.828c-3.079,1.026 -5.644,2.053 -8.21,3.592l-133.927,85.693c-6.671,4.105 -11.289,10.776 -12.315,18.473c-1.539,7.697 0.513,15.907 5.131,22.578c7.697,11.289 21.551,15.907 34.38,12.828c3.079,-1.026 5.644,-2.053 8.21,-3.592l51.313,-32.327c8.21,-5.131 17.446,-9.236 27.196,-11.802c43.103,-11.289 88.771,5.644 113.915,42.077c15.394,21.551 21.551,48.234 16.933,74.404c-4.618,25.656 -19.499,48.234 -41.563,62.089l-134.44,85.18c-8.21,5.131 -17.446,9.236 -27.196,11.802c-43.103,11.289 -88.771,-5.644 -113.915,-42.077c-15.394,-21.551 -21.551,-48.234 -16.933,-74.404c1.026,-4.105 2.053,-8.21 3.079,-12.315l2.566,-7.697l6.671,5.131c15.907,11.802 33.353,20.525 52.339,26.17l5.131,1.539l-0.513,5.131c-0.513,7.184 1.539,14.368 5.644,20.012c7.697,11.289 21.551,15.907 34.38,12.828c3.079,-1.026 5.644,-2.053 8.21,-3.592l133.927,-85.18c6.671,-4.105 11.289,-10.776 12.828,-18.473c1.539,-7.697 -0.513,-15.907 -5.131,-22.578c-7.697,-11.289 -21.551,-15.907 -34.38,-12.828c-3.079,1.026 -5.644,2.053 -8.21,3.592l-51.313,32.327c-8.21,5.131 -17.446,9.236 -27.196,11.802c-43.103,10.776 -88.771,-6.158 -114.428,-43.103c-15.394,-21.551 -21.551,-48.234 -16.933,-74.404c4.618,-25.656 19.499,-48.234 41.563,-62.089l134.44,-85.18c8.21,-5.131 17.446,-9.236 27.196,-11.802c43.103,-11.289 88.771,5.644 113.915,42.077c15.394,22.065 21.551,48.747 16.933,74.917Z" style="fill:#ff3e00;fill-rule:nonzero;"/></g><path d="M521.289,645.482l160.528,-58.921l58.921,160.528l-160.528,58.921l-58.921,-160.528Z" style="fill:none;fill-rule:nonzero;"/><path d="M641.26,662.166l0.067,-0.025" style="fill:none;fill-rule:nonzero;stroke:#0b7f78;stroke-width:14.25px;"/><path d="M649.765,757.711l-36.788,13.503c-11.008,4.04 -23.391,-1.693 -27.431,-12.701l-29.461,-80.264c-4.04,-11.008 1.693,-23.391 12.701,-27.431l80.264,-29.461c11.008,-4.04 23.391,1.693 27.431,12.701l13.503,36.788" style="fill:none;fill-rule:nonzero;stroke:#0b7f78;stroke-width:14.25px;"/><path d="M665.81,729.052c4.04,11.008 16.423,16.741 27.431,12.701c11.008,-4.04 16.741,-16.423 12.701,-27.431c-4.04,-11.008 -16.423,-16.741 -27.431,-12.701c-11.008,4.04 -16.741,16.423 -12.701,27.431" style="fill:none;fill-rule:nonzero;stroke:#0b7f78;stroke-width:14.25px;"/><path d="M705.992,731.001l16.459,7.621" style="fill:none;fill-rule:nonzero;stroke:#0b7f78;stroke-width:14.25px;"/><path d="M580.636,745.136l21.168,-45.719c4.015,-8.251 11.667,-11.06 20.066,-7.365l18.287,8.467" style="fill:none;fill-rule:nonzero;stroke:#0b7f78;stroke-width:14.25px;"/></svg>